<?xml version="1.0" standalone="no"?>
<!DOCTYPE svg PUBLIC "-//W3C//DTD SVG 20010904//EN"
 "http://www.w3.org/TR/2001/REC-SVG-20010904/DTD/svg10.dtd">
<svg version="1.0" xmlns="http://www.w3.org/2000/svg"
 width="500.000000pt" height="357.000000pt" viewBox="0 0 500.000000 357.000000"
 preserveAspectRatio="xMidYMid meet">

<g transform="translate(0.000000,357.000000) scale(0.100000,-0.100000)"
fill="#000000" stroke="none">
<path d="M389 3417 c-104 -29 -199 -112 -247 -215 l-27 -57 0 -1375 0 -1375
27 -56 c39 -78 136 -170 212 -198 l58 -22 2096 1 2095 0 54 25 c73 33 156 114
193 188 l30 60 0 1376 0 1376 -28 60 c-46 97 -163 197 -245 209 -18 3 -963 7
-2102 10 -1664 5 -2079 3 -2116 -7z m4222 -113 c66 -31 114 -78 146 -142 28
-56 28 -60 31 -269 l4 -213 -2292 0 -2292 0 4 218 c5 242 9 259 75 333 38 42
96 77 148 90 17 4 953 6 2080 6 l2050 -2 46 -21z m177 -1801 l-3 -1068 -24
-49 c-32 -64 -82 -113 -146 -142 l-52 -24 -2079 2 -2079 3 -46 27 c-52 31 -89
71 -122 132 l-22 41 -3 1073 -3 1072 2291 0 2290 0 -2 -1067z"/>
<path d="M691 3215 c-55 -17 -116 -76 -137 -132 -25 -64 -16 -152 22 -206 36
-52 119 -97 178 -97 92 0 173 49 207 124 22 49 25 143 5 190 -20 47 -81 102
-134 120 -55 19 -83 19 -141 1z m135 -114 c63 -38 69 -138 13 -185 -41 -35
-72 -41 -116 -25 -51 20 -78 60 -77 115 2 92 100 144 180 95z"/>
<path d="M1289 3217 c-51 -19 -94 -52 -118 -90 -127 -207 101 -436 308 -310
85 52 125 177 85 271 -43 103 -176 166 -275 129z m147 -128 c63 -60 42 -172
-39 -198 -133 -44 -217 136 -98 213 36 23 104 16 137 -15z"/>
<path d="M1886 3216 c-140 -52 -195 -205 -121 -332 60 -102 210 -134 312 -67
107 69 134 217 59 316 -60 78 -167 114 -250 83z m124 -111 c42 -22 60 -53 60
-106 0 -89 -87 -141 -167 -101 -44 23 -63 56 -63 108 0 86 92 140 170 99z"/>
<path d="M4207 3218 c-12 -10 -17 -32 -19 -88 l-3 -75 -78 -5 c-79 -5 -96 -14
-97 -51 0 -34 33 -49 108 -49 l72 0 0 -73 c0 -78 9 -97 46 -97 36 0 54 36 54
107 l0 63 69 0 c91 0 120 26 91 81 -9 16 -22 19 -85 19 l-75 0 0 70 c0 57 -4
74 -20 90 -23 23 -39 25 -63 8z"/>
<path d="M3332 2267 c-44 -14 -118 -80 -145 -131 -20 -38 -22 -54 -22 -226 0
-208 7 -239 63 -302 91 -101 238 -116 344 -35 74 56 117 162 97 238 -21 82
-89 128 -204 136 -65 5 -75 3 -94 -16 -46 -46 -10 -91 74 -91 99 0 140 -40
116 -113 -21 -62 -74 -97 -150 -97 -58 0 -104 32 -127 87 -17 40 -19 317 -3
360 16 43 59 82 103 94 77 21 168 -39 181 -119 9 -53 18 -67 49 -70 39 -5 56
14 56 62 0 86 -64 176 -155 217 -44 21 -130 23 -183 6z"/>
<path d="M1352 2234 c-22 -15 -22 -17 -22 -343 0 -271 2 -331 14 -340 10 -9
80 -11 249 -9 262 3 264 4 315 79 21 31 23 43 20 125 -3 80 -6 95 -30 126 -15
19 -41 41 -58 48 -25 10 -29 16 -23 34 5 11 8 55 8 96 0 91 -25 139 -89 173
-37 20 -57 22 -201 24 -132 2 -165 0 -183 -13z m346 -114 c18 -17 22 -32 22
-80 0 -51 -3 -61 -26 -79 -24 -19 -40 -21 -145 -21 l-119 0 0 100 0 100 123 0
c110 0 126 -2 145 -20z m109 -303 c13 -13 18 -34 18 -78 0 -96 -7 -99 -221
-99 l-174 0 0 101 0 100 180 -3 c156 -3 182 -5 197 -21z"/>
<path d="M2746 2236 c-21 -8 -54 -29 -72 -47 -60 -58 -64 -76 -64 -292 0 -217
5 -244 58 -299 44 -46 87 -61 161 -56 68 5 121 40 154 102 21 38 22 54 22 246
0 190 -2 208 -21 245 -25 45 -45 66 -90 89 -47 23 -104 28 -148 12z m125 -125
l29 -29 0 -182 c0 -197 -6 -226 -55 -248 -40 -18 -62 -15 -97 17 l-33 29 -3
176 c-3 145 -1 181 13 209 29 63 98 75 146 28z"/>
<path d="M2102 2228 c-17 -17 -17 -659 0 -676 8 -8 60 -12 168 -12 164 0 180
4 180 45 0 45 -28 55 -148 55 l-112 0 0 288 c0 308 -1 312 -50 312 -14 0 -31
-5 -38 -12z"/>
<path d="M1402 1313 c-13 -25 -6 -55 14 -70 14 -10 208 -13 941 -13 l923 0 16
25 c14 21 15 31 6 50 l-12 25 -939 0 c-885 0 -941 -1 -949 -17z"/>
<path d="M1408 953 c-17 -20 -16 -46 2 -69 11 -12 96 -14 609 -12 l596 3 9 28
c7 19 7 33 0 45 -10 16 -59 17 -606 20 -557 2 -596 1 -610 -15z"/>
<path d="M1413 598 c-19 -25 -21 -46 -7 -67 15 -21 16 -21 609 -21 577 0 595
1 605 19 14 27 13 47 -6 65 -14 14 -82 16 -603 16 -459 0 -591 -3 -598 -12z"/>
</g>
</svg>
